<svg width="62" height="32" viewBox="0 0 62 32" fill="none" xmlns="http://www.w3.org/2000/svg">
<path d="M46.037 0.00130819V0.367803L45.9755 0.00130819C43.2987 0.0222507 40.4676 1.14006 38.4479 2.50394C35.4086 4.58249 33.3157 7.42937 31.4138 9.77625C31.2371 9.99483 29.6363 12.1585 27.8588 14.5106C26.0892 16.8561 24.1389 19.3863 23.351 20.2253C22.029 21.6415 21.0276 23.1559 19.631 24.0813C18.2619 25.008 16.5014 25.5905 15.7344 25.5905C15.7344 25.5905 15.7069 25.5905 15.6768 25.5905C13.0315 25.5905 10.6532 24.368 8.90451 22.6271C7.16366 20.8797 6.09559 18.4255 6.09559 15.7671C6.0969 13.1074 7.16366 10.6218 8.90451 8.87441C10.6532 7.13356 13.0315 5.95685 15.6899 5.95685C15.7108 5.95685 15.7266 5.95685 15.7409 5.95685C16.5302 5.95685 17.8575 6.49088 19.2737 7.47126C21.2894 8.83252 22.94 10.6074 24.5761 12.5852L24.8719 12.9634L28.6141 7.94901L28.4217 7.73042C28.1612 7.43068 28.3745 7.61393 28.0944 7.30764C26.5395 5.61522 25.224 3.88746 23.1952 2.50264C21.169 1.13875 18.3692 0.0209426 15.6938 0C7.02361 0.00392673 0.00261782 7.02361 0 15.6899C0.00261782 24.3549 7.02361 31.3759 15.6899 31.3785C18.3692 31.3576 21.169 30.2397 23.1913 28.8759C26.2292 26.7973 28.3078 23.9504 30.2096 21.6022C30.3837 21.3863 31.978 19.2226 33.7542 16.8692C35.5238 14.525 37.4715 11.9935 38.2607 11.1545C39.5801 9.73698 41.0684 8.30765 42.4663 7.38225C43.838 6.45685 45.109 5.95685 45.876 5.95685H45.9022C48.5815 5.95685 50.9585 7.0956 52.7046 8.83776C54.448 10.5838 55.5122 12.9962 55.5135 15.6559C55.5109 18.3143 54.448 20.8627 52.7046 22.6101C50.9585 24.3523 48.5802 25.5905 45.9192 25.5905H45.8707C45.0802 25.5905 43.2634 24.9727 41.8472 23.991C39.8327 22.6324 38.5317 20.6782 36.8982 18.6991L36.5984 18.3025L32.8589 23.3038L33.0526 23.5185C33.3131 23.8182 33.2371 23.7685 33.5159 24.0748C35.0709 25.7659 36.3864 27.491 38.4139 28.8772C40.4388 30.2411 43.2411 31.3589 45.9166 31.3785C54.5855 31.3772 61.6641 24.3549 61.6667 15.6899C61.6641 7.02492 53.8904 0.00392601 46.037 0.00130819Z" fill="url(#paint0_linear_3_2)"/>
<defs>
<linearGradient id="paint0_linear_3_2" x1="0" y1="0" x2="61.6667" y2="0" gradientUnits="userSpaceOnUse">
<stop stop-color="#00FF8F"/>
<stop offset="1" stop-color="#00A1FF"/>
</linearGradient>
</defs>
</svg>
